<svg width="41" height="41" viewBox="0 0 41 41" fill="none" xmlns="http://www.w3.org/2000/svg">
    <path fill-rule="evenodd" clip-rule="evenodd" d="M26.0075 12.0979C24.363 10.9991 22.4296 10.4126 20.4518 10.4126V0.412598C24.4074 0.412598 28.2742 1.58558 31.5632 3.78321C34.8522 5.98083 37.4156 9.10441 38.9294 12.7589C40.4431 16.4134 40.8392 20.4348 40.0675 24.3144C39.2958 28.194 37.391 31.7577 34.5939 34.5547C31.7969 37.3518 28.2332 39.2566 24.3536 40.0283C20.474 40.8 16.4526 40.4039 12.7981 38.8902C9.14358 37.3764 6.02001 34.813 3.82239 31.524C1.62476 28.235 0.451782 24.3682 0.451782 20.4126H10.4518C10.4518 22.3904 11.0383 24.3238 12.1371 25.9683C13.2359 27.6128 14.7977 28.8945 16.625 29.6514C18.4522 30.4083 20.4629 30.6063 22.4027 30.2204C24.3425 29.8346 26.1243 28.8822 27.5229 27.4837C28.9214 26.0851 29.8738 24.3033 30.2596 22.3635C30.6455 20.4237 30.4475 18.413 29.6906 16.5858C28.9337 14.7585 27.652 13.1967 26.0075 12.0979Z" fill="#58BF73"/>
    <path fill-rule="evenodd" clip-rule="evenodd" d="M10.4518 0.412603C10.4518 1.72582 10.1931 3.02618 9.69058 4.23944C9.18803 5.45269 8.45144 6.55508 7.52285 7.48367C6.59427 8.41226 5.49188 9.14885 4.27862 9.6514C3.06536 10.1539 1.765 10.4126 0.451783 10.4126L0.451782 20.4126C3.07822 20.4126 5.67894 19.8953 8.10546 18.8902C10.532 17.8851 12.7368 16.4119 14.5939 14.5547C16.4511 12.6976 17.9243 10.4928 18.9294 8.06627C19.9345 5.63975 20.4518 3.03903 20.4518 0.412598L10.4518 0.412603Z" fill="#58BF73"/>
</svg>
